<svg width="11" height="19" viewBox="0 0 11 19" fill="none" xmlns="http://www.w3.org/2000/svg">
<path d="M9.66484 0.00382427L7.25597 0C4.54969 0 2.80078 1.77542 2.80078 4.52334V6.60891H0.378771C0.169481 6.60891 0 6.77679 0 6.98388V10.0056C0 10.2127 0.169674 10.3804 0.378771 10.3804H2.80078V18.0052C2.80078 18.2123 2.97026 18.38 3.17955 18.38H6.33958C6.54887 18.38 6.71835 18.2121 6.71835 18.0052V10.3804H9.55024C9.75953 10.3804 9.92901 10.2127 9.92901 10.0056L9.93017 6.98388C9.93017 6.88444 9.89017 6.78922 9.81925 6.71885C9.74832 6.64849 9.6517 6.60891 9.55121 6.60891H6.71835V4.84095C6.71835 3.9912 6.923 3.55982 8.04173 3.55982L9.66445 3.55925C9.87355 3.55925 10.043 3.39136 10.043 3.18447V0.378602C10.043 0.171901 9.87374 0.00420669 9.66484 0.00382427Z" fill="#0A390A"/>
</svg>
