<svg width="26" height="26" viewBox="0 0 26 26" fill="none" xmlns="http://www.w3.org/2000/svg">
<path d="M8.49207 4.20747V18.0475C7.68674 17.3291 6.62551 16.8917 5.46389 16.8917C2.95277 16.8917 0.90979 18.9347 0.90979 21.4458C0.90979 23.957 2.95277 26 5.46389 26C7.97192 26 10.0128 23.9622 10.0179 21.4553H10.018V10.3327L23.5643 6.89882V14.3736C22.7589 13.6552 21.6977 13.2178 20.5361 13.2178C18.025 13.2178 15.982 15.2608 15.982 17.7719C15.982 20.2831 18.025 22.326 20.5361 22.326C23.0473 22.326 25.0902 20.283 25.0902 17.7719V0L8.49207 4.20747Z" fill="#0A390A"/>
</svg>
