<?xml version="1.0" standalone="no"?>
<!DOCTYPE svg PUBLIC "-//W3C//DTD SVG 20010904//EN"
 "http://www.w3.org/TR/2001/REC-SVG-20010904/DTD/svg10.dtd">
<svg version="1.0" xmlns="http://www.w3.org/2000/svg"
 width="80.000000pt" height="80.000000pt" viewBox="0 0 80.000000 80.000000"
 preserveAspectRatio="xMidYMid meet">
<metadata>
Created by potrace 1.14, written by Peter Selinger 2001-2017
</metadata>
<g transform="translate(0.000000,80.000000) scale(0.100000,-0.100000)"
fill="#000000" stroke="none">
<path d="M371 758 c-108 -16 -216 -95 -263 -192 -12 -25 -25 -46 -29 -46 -4 0
-17 11 -28 26 -19 25 -20 25 -31 5 -21 -40 -11 -187 16 -229 10 -15 25 -34 35
-43 13 -11 15 -19 8 -26 -7 -7 1 -21 27 -44 20 -19 50 -48 66 -65 41 -44 134
-92 199 -101 74 -12 158 1 220 33 60 30 138 106 163 159 34 70 51 215 27 215
-4 0 -8 -18 -9 -40 -1 -22 -9 -56 -17 -76 l-15 -36 -30 22 c-18 13 -53 24 -85
27 -55 6 -55 6 -55 40 0 44 -14 69 -48 87 -39 19 -71 11 -113 -30 -32 -31 -38
-33 -51 -21 -24 25 -76 48 -83 37 -4 -6 -12 -4 -21 5 -9 8 -22 15 -30 15 -19
0 -18 10 5 63 46 107 143 170 261 171 60 0 88 -9 173 -52 4 -2 4 3 1 11 -3 8
-31 29 -62 45 -80 42 -142 53 -231 40z m119 -608 c0 -5 -7 -7 -15 -4 -8 4 -15
8 -15 10 0 2 7 4 15 4 8 0 15 -4 15 -10z"/>
</g>
</svg>
