<svg width="23" height="18" viewBox="0 0 23 18" fill="none" xmlns="http://www.w3.org/2000/svg">
<path fill-rule="evenodd" clip-rule="evenodd" d="M22.0378 2.15666C21.2111 2.51718 20.3369 2.7555 19.4424 2.86422C20.3861 2.29742 21.0934 1.40575 21.4329 0.354604C20.546 0.885342 19.5752 1.25928 18.5626 1.46016C17.1705 -0.0574562 14.9342 -0.437795 13.123 0.53502C11.3118 1.50783 10.3833 3.58804 10.8644 5.59495C7.23786 5.41055 3.85985 3.68649 1.57161 0.852105C1.17475 1.54879 0.966221 2.33778 0.96675 3.14061C0.963892 4.6549 1.71525 6.07011 2.96828 6.91056C2.25122 6.89095 1.54949 6.69752 0.92276 6.34673V6.40201C0.93384 8.55561 2.45077 10.404 4.5519 10.8242C4.15957 10.9443 3.75225 11.0075 3.34219 11.0122C3.05833 11.0088 2.77519 10.983 2.49539 10.9348C3.09032 12.7768 4.78126 14.0373 6.70739 14.0746C5.12069 15.3297 3.1617 16.0147 1.14271 16.0204C0.775104 16.0216 0.407791 15.9994 0.0429688 15.954C2.10435 17.292 4.5066 18.0023 6.96033 17.9993C10.3808 18.035 13.672 16.6871 16.0939 14.2586C18.5158 11.8302 19.865 8.52505 19.8383 5.08639C19.8383 4.89845 19.8383 4.69945 19.8383 4.50045C20.7012 3.85349 21.4455 3.06037 22.0378 2.15666Z" fill="#0A390A"/>
</svg>
